<?xml version="1.0" encoding="utf-8"?>
<svg xmlns="http://www.w3.org/2000/svg" xmlns:xlink="http://www.w3.org/1999/xlink" style="margin: auto; background: none; display: block; z-index: 1; position: relative; shape-rendering: auto;" width="697" height="1121" preserveAspectRatio="xMidYMid" viewBox="0 0 697 1121">
<g transform="translate(348.5,560.5) scale(1,1) translate(-348.5,-560.5)"><g transform="translate(717.6545696991903,427.59617699175993) scale(100)" opacity="0.41000000000000003">
  <path d="M3.53115 0 C3.53115 0.7062299999999997 4.257588000828034 0.9991328493274271 3.987325480388837 1.6516042915728728 S2.9962801324642525 1.997520088309502 2.496900110386877 2.496900110386877 S2.3040757338183186 3.7170629599496396 1.651604291572873 3.987325480388837 S0.7062299999999999 3.53115 2.162205772404588e-16 3.53115 S-0.9991328493274269 4.257588000828034 -1.6516042915728726 3.987325480388837 S-1.997520088309502 2.9962801324642525 -2.496900110386877 2.496900110386877 S-3.7170629599496396 2.304075733818319 -3.987325480388837 1.6516042915728733 S-3.53115 0.7062300000000001 -3.53115 4.324411544809176e-16 S-4.257588000828035 -0.9991328493274265 -3.9873254803888374 -1.6516042915728724 S-2.9962801324642525 -1.9975200883095017 -2.4969001103868775 -2.496900110386877 S-2.304075733818321 -3.7170629599496383 -1.6516042915728752 -3.987325480388836 S-0.7062300000000004 -3.53115 -6.486617317213764e-16 -3.53115 S0.9991328493274281 -4.257588000828034 1.6516042915728737 -3.9873254803888365 S1.9975200883095012 -2.9962801324642525 2.4969001103868766 -2.4969001103868775 S3.7170629599496383 -2.304075733818321 3.987325480388836 -1.6516042915728755 S3.53115 -0.7062300000000006 3.53115 -8.648823089618352e-16" fill="#a8ebfc" stroke-width="0">
    <animateTransform attributeName="transform" type="rotate" dur="100s" repeatCount="indefinite" values="0;45"></animateTransform>
  </path>
</g><g transform="translate(791.4854836390284,401.0154123901119) scale(100)" opacity="0.41000000000000003">
  <path d="M4.23738 0 C4.23738 0.8474759999999997 5.109105600993641 1.1989594191929127 4.784790576466604 1.9819251498874475 S3.595536158957103 2.3970241059714024 2.996280132464253 2.9962801324642525 S2.7648908805819827 4.460475551939568 1.9819251498874477 4.784790576466604 S0.8474759999999999 4.23738 2.5946469268855055e-16 4.23738 S-1.1989594191929123 5.109105600993641 -1.981925149887447 4.784790576466604 S-2.3970241059714024 3.595536158957103 -2.9962801324642525 2.996280132464253 S-4.460475551939568 2.7648908805819827 -4.784790576466604 1.981925149887448 S-4.23738 0.8474760000000002 -4.23738 5.189293853771011e-16 S-5.109105600993642 -1.1989594191929118 -4.784790576466605 -1.9819251498874468 S-3.5955361589571035 -2.397024105971402 -2.9962801324642534 -2.9962801324642525 S-2.7648908805819854 -4.460475551939567 -1.9819251498874504 -4.784790576466603 S-0.8474760000000005 -4.23738 -7.783940780656517e-16 -4.23738 S1.1989594191929138 -5.109105600993641 1.9819251498874486 -4.784790576466604 S2.3970241059714015 -3.5955361589571035 2.996280132464252 -2.9962801324642534 S4.460475551939567 -2.7648908805819854 4.784790576466603 -1.9819251498874506 S4.23738 -0.8474760000000007 4.23738 -1.0378587707542022e-15" fill="#a8ebfc" stroke-width="0">
    <animateTransform attributeName="transform" type="rotate" dur="50s" repeatCount="indefinite" values="0;45"></animateTransform>
  </path>
</g><g transform="translate(968.6796770946397,337.2215773461567) scale(100)" opacity="0.41000000000000003">
  <path d="M5.932331999999999 0 C5.932331999999999 1.1864663999999994 7.152747841391096 1.6785431868700773 6.698706807053245 2.774695209842426 S5.033750622539944 3.3558337483599625 4.194792185449954 4.194792185449953 S3.870847232814775 6.244665772715393 2.774695209842426 6.698706807053245 S1.1864663999999998 5.932331999999999 3.6325056976397073e-16 5.932331999999999 S-1.6785431868700769 7.152747841391096 -2.7746952098424256 6.698706807053245 S-3.3558337483599625 5.033750622539944 -4.194792185449953 4.194792185449954 S-6.244665772715393 3.870847232814775 -6.698706807053245 2.7746952098424265 S-5.932331999999999 1.1864664 -5.932331999999999 7.265011395279415e-16 S-7.152747841391097 -1.6785431868700762 -6.698706807053246 -2.774695209842425 S-5.033750622539944 -3.355833748359962 -4.194792185449954 -4.194792185449953 S-3.8708472328147785 -6.244665772715392 -2.77469520984243 -6.698706807053243 S-1.1864664000000005 -5.932331999999999 -1.089751709291912e-15 -5.932331999999999 S1.6785431868700786 -7.152747841391096 2.7746952098424273 -6.698706807053244 S3.355833748359961 -5.0337506225399435 4.194792185449952 -4.194792185449954 S6.244665772715392 -3.8708472328147785 6.698706807053243 -2.77469520984243 S5.932331999999999 -1.186466400000001 5.932331999999999 -1.453002279055883e-15" fill="#a8ebfc" stroke-width="0">
    <animateTransform attributeName="transform" type="rotate" dur="33.333333333333336s" repeatCount="indefinite" values="0;45"></animateTransform>
  </path>
</g></g>
</svg>