<?xml version="1.0"?>
<svg xmlns="http://www.w3.org/2000/svg" xmlns:xlink="http://www.w3.org/1999/xlink" xmlns:svgjs="http://svgjs.com/svgjs" version="1.1" width="512" height="512" x="0" y="0" viewBox="0 0 512 512" style="enable-background:new 0 0 512 512" xml:space="preserve"><g><linearGradient xmlns="http://www.w3.org/2000/svg" id="SVGID_1_" gradientUnits="userSpaceOnUse" x1="256" x2="256" y1="512" y2="0"><stop offset="0" stop-color="#009efd"/><stop offset="1" stop-color="#2af598"/></linearGradient><g xmlns="http://www.w3.org/2000/svg"><g><path d="m280.051 458.83c-9.348-10.684-23.476-26.83-50.051-26.83s-40.703 16.146-50.051 26.83c-8.709 9.953-12.178 13.17-19.949 13.17s-11.24-3.217-19.949-13.17c-9.348-10.684-23.476-26.83-50.051-26.83s-40.703 16.146-50.051 26.83c-8.709 9.953-12.178 13.17-19.949 13.17h-20v40h20c26.575 0 40.703-16.146 50.051-26.83 8.709-9.953 12.178-13.17 19.949-13.17s11.24 3.217 19.949 13.17c9.348 10.684 23.476 26.83 50.051 26.83s40.703-16.146 50.051-26.83c8.709-9.953 12.178-13.17 19.949-13.17s11.24 3.217 19.949 13.17c9.348 10.684 23.476 26.83 50.051 26.83h20v-40h-20c-7.771 0-11.24-3.217-19.949-13.17zm171.949-378.83h-20v-20c0-33.084-26.916-60-60-60s-60 26.916-60 60v295.432c0 38.976 14.146 75.769 40 104.525v52.043h40v-52.042c25.854-28.756 40-65.55 40-104.526v-235.432h20c11.028 0 20 8.972 20 20v136h40v-136c0-33.084-26.916-60-60-60zm-60 275.432c0 23.65-6.993 46.224-20 65.355-13.007-19.131-20-41.704-20-65.355v-235.432h40zm0-275.432h-40v-20c0-11.028 8.972-20 20-20s20 8.972 20 20z" fill="url(#SVGID_1_)" data-original="url(#SVGID_1_)"/></g></g></g></svg>
