<?xml version="1.0"?>
<svg xmlns="http://www.w3.org/2000/svg" xmlns:xlink="http://www.w3.org/1999/xlink" xmlns:svgjs="http://svgjs.com/svgjs" version="1.1" width="512" height="512" x="0" y="0" viewBox="0 0 511.999 511.999" style="enable-background:new 0 0 512 512" xml:space="preserve" class=""><g>
<linearGradient xmlns="http://www.w3.org/2000/svg" id="SVGID_1_" gradientUnits="userSpaceOnUse" x1="256.2574" y1="513.8824" x2="256.2574" y2="1.4504" gradientTransform="matrix(0.9992 0 0 -0.9992 -0.0414 513.4482)"><stop stop-opacity="1" stop-color="#ffffff" offset="0"/><stop stop-opacity="1" stop-color="#ffffff" offset="1"/></linearGradient>
<path xmlns="http://www.w3.org/2000/svg" style="fill:url(#SVGID_1_);" d="M341.375,170.966h-224.81V131h224.81V170.966z M341.375,210.933h-224.81v39.966h224.81  V210.933z M66.607,451.618V59.949c0-11.019,8.964-19.983,19.983-19.983h285.67c11.061,0,20.065,8.959,20.071,19.96v150.895h39.966  V59.914C432.279,26.877,405.347,0,372.261,0H86.59C53.534,0,26.641,26.893,26.641,59.949v391.669  c0,33.056,26.893,59.949,59.949,59.949h100.915v-39.966H86.59C75.572,471.601,66.607,462.637,66.607,451.618z M485.358,335.236  L351.109,473.276c-7.726,7.722-17.293,13.618-27.667,17.051l-0.943,0.313l-95.409,21.36l21.638-95.156l0.303-0.915  c3.419-10.319,9.28-19.841,16.953-27.545L400.25,250.321L485.358,335.236z M429.197,335.66l-28.518-28.454L294.347,416.541  c-0.763,0.762-1.483,1.569-2.16,2.409l28.225,28.244c0.821-0.659,1.611-1.358,2.358-2.099L429.197,335.66z M116.565,330.72h149.873  v-39.966H116.565V330.72z" fill=""/>
<g xmlns="http://www.w3.org/2000/svg">
</g>
<g xmlns="http://www.w3.org/2000/svg">
</g>
<g xmlns="http://www.w3.org/2000/svg">
</g>
<g xmlns="http://www.w3.org/2000/svg">
</g>
<g xmlns="http://www.w3.org/2000/svg">
</g>
<g xmlns="http://www.w3.org/2000/svg">
</g>
<g xmlns="http://www.w3.org/2000/svg">
</g>
<g xmlns="http://www.w3.org/2000/svg">
</g>
<g xmlns="http://www.w3.org/2000/svg">
</g>
<g xmlns="http://www.w3.org/2000/svg">
</g>
<g xmlns="http://www.w3.org/2000/svg">
</g>
<g xmlns="http://www.w3.org/2000/svg">
</g>
<g xmlns="http://www.w3.org/2000/svg">
</g>
<g xmlns="http://www.w3.org/2000/svg">
</g>
<g xmlns="http://www.w3.org/2000/svg">
</g>
</g></svg>
